<svg width="24" height="24" viewBox="0 0 18 18" fill="none" xmlns="http://www.w3.org/2000/svg">
<g>
<path d="M7.5 15.75L10.5 12.75H16.5V15.75H7.5ZM3 14.25H4.05L10.5187 7.78125L9.46875 6.73125L3 13.2V14.25ZM13.725 6.69375L10.5375 3.54375L11.5875 2.49375C11.875 2.20625 12.2283 2.0625 12.6473 2.0625C13.0658 2.0625 13.4187 2.20625 13.7062 2.49375L14.7562 3.54375C15.0437 3.83125 15.1937 4.17825 15.2062 4.58475C15.2188 4.99075 15.0813 5.3375 14.7938 5.625L13.725 6.69375ZM12.6375 7.8L4.6875 15.75H1.5V12.5625L9.45 4.6125L12.6375 7.8Z" fill="currentColor"/>
</g>
</svg>
